<svg id="i-instagram" width="20" height="20" viewBox="0 0 24 24" xmlns="http://www.w3.org/2000/svg"><g fill="none" class="signal-icon-wrapper" stroke="none"><path d="M11.993 7.37a4.623 4.623 0 1 0 0 9.246 4.623 4.623 0 0 0 0-9.245zm0 7.626a3.003 3.003 0 1 1 0-6.007 3.003 3.003 0 0 1 0 6.007z" fill="#4fb1e1"></path><path d="M16.799 8.279a1.078 1.078 0 1 0 0-2.156 1.078 1.078 0 0 0 0 2.156z" fill="#4fb1e1"></path><path d="M20.525 6.105a4.604 4.604 0 0 0-2.633-2.631 6.605 6.605 0 0 0-2.185-.42C14.744 3.012 14.439 3 11.998 3s-2.754 0-3.709.054a6.552 6.552 0 0 0-2.183.42 4.599 4.599 0 0 0-2.633 2.631 6.583 6.583 0 0 0-.419 2.186c-.043.961-.056 1.266-.056 3.709 0 2.44 0 2.752.056 3.709.015.747.156 1.485.42 2.186a4.61 4.61 0 0 0 2.633 2.631 6.58 6.58 0 0 0 2.184.45c.963.042 1.268.055 3.709.055s2.754 0 3.709-.055a6.613 6.613 0 0 0 2.185-.419 4.61 4.61 0 0 0 2.633-2.632c.263-.7.403-1.438.418-2.186.043-.961.056-1.266.056-3.709 0-2.442 0-2.752-.056-3.708a6.577 6.577 0 0 0-.42-2.217zm-1.218 9.53a5.043 5.043 0 0 1-.31 1.687 2.987 2.987 0 0 1-1.712 1.71c-.535.199-1.1.304-1.67.312-.95.043-1.218.054-3.653.054-2.437 0-2.686 0-3.654-.054a4.958 4.958 0 0 1-1.669-.311 2.984 2.984 0 0 1-1.718-1.71 5.079 5.079 0 0 1-.311-1.67c-.043-.95-.053-1.217-.053-3.652 0-2.437 0-2.686.053-3.654a5.037 5.037 0 0 1 .31-1.687c.306-.789.93-1.41 1.72-1.712a5.009 5.009 0 0 1 1.668-.31c.95-.043 1.218-.055 3.654-.055s2.686 0 3.653.055c.57.006 1.135.112 1.67.31a2.989 2.989 0 0 1 1.711 1.712c.197.535.302 1.099.311 1.669.043.95.054 1.217.054 3.654 0 2.435 0 2.697-.043 3.653h-.011v-.001z" fill="#4fb1e1"></path></g></svg>